# Blender 4.3.2
# www.blender.org
o Cylinder
v 0.000000 21.553570 -3.312973
v 0.000000 57.205845 -7.995632
v 0.646328 21.553570 -3.249315
v 1.559870 57.205845 -7.841998
v 1.267823 21.553570 -3.060786
v 3.059796 57.205845 -7.387001
v 1.840590 21.553570 -2.754637
v 4.442135 57.205845 -6.648125
v 2.342625 21.553570 -2.342625
v 5.653766 57.205845 -5.653766
v 2.754637 21.553570 -1.840590
v 6.648125 57.205845 -4.442135
v 3.060788 21.553570 -1.267823
v 7.387001 57.205845 -3.059796
v 3.249315 21.553570 -0.646328
v 7.841998 57.205845 -1.559870
v 3.312973 21.553570 0.000000
v 7.995632 57.205845 0.000000
v 3.249315 21.553570 0.646328
v 7.841998 57.205845 1.559870
v 3.060786 21.553570 1.267823
v 7.387001 57.205845 3.059796
v 2.754637 21.553570 1.840590
v 6.648125 57.205845 4.442135
v 2.342625 21.553570 2.342625
v 5.653766 57.205845 5.653766
v 1.840590 21.553570 2.754637
v 4.442135 57.205845 6.648125
v 1.267823 21.553570 3.060788
v 3.059796 57.205845 7.387001
v 0.646328 21.553570 3.249315
v 1.559870 57.205845 7.841998
v 0.000000 21.553570 3.312973
v 0.000000 57.205845 7.995632
v -0.646328 21.553570 3.249315
v -1.559870 57.205845 7.841998
v -1.267823 21.553570 3.060786
v -3.059796 57.205845 7.387001
v -1.840590 21.553570 2.754637
v -4.442135 57.205845 6.648125
v -2.342625 21.553570 2.342625
v -5.653766 57.205845 5.653766
v -2.754637 21.553570 1.840590
v -6.648125 57.205845 4.442135
v -3.060788 21.553570 1.267823
v -7.387001 57.205845 3.059796
v -3.249315 21.553570 0.646328
v -7.841998 57.205845 1.559870
v -3.312973 21.553570 0.000000
v -7.995632 57.205845 0.000000
v -3.249315 21.553570 -0.646328
v -7.841998 57.205845 -1.559870
v -3.060786 21.553570 -1.267823
v -7.387001 57.205845 -3.059796
v -2.754637 21.553570 -1.840590
v -6.648125 57.205845 -4.442135
v -2.342625 21.553570 -2.342625
v -5.653766 57.205845 -5.653766
v -1.840590 21.553570 -2.754637
v -4.442135 57.205845 -6.648125
v -1.267823 21.553570 -3.060788
v -3.059796 57.205845 -7.387001
v -0.646328 21.553570 -3.249315
v -1.559870 57.205845 -7.841998
v 0.000000 21.553570 -7.995632
v 1.559870 21.553570 -7.841998
v 3.059796 21.553570 -7.387001
v 4.442135 21.553570 -6.648125
v 5.653766 21.553570 -5.653766
v 6.648125 21.553570 -4.442135
v 7.387001 21.553570 -3.059796
v 7.841998 21.553570 -1.559870
v 7.995632 21.553570 0.000000
v 7.841998 21.553570 1.559870
v 7.387001 21.553570 3.059796
v 6.648125 21.553570 4.442135
v 5.653766 21.553570 5.653766
v 4.442135 21.553570 6.648125
v 3.059796 21.553570 7.387001
v 1.559870 21.553570 7.841998
v 0.000000 21.553570 7.995632
v -1.559870 21.553570 7.841998
v -3.059796 21.553570 7.387001
v -4.442135 21.553570 6.648125
v -5.653766 21.553570 5.653766
v -6.648125 21.553570 4.442135
v -7.387001 21.553570 3.059796
v -7.841998 21.553570 1.559870
v -7.995632 21.553570 0.000000
v -7.841998 21.553570 -1.559870
v -7.387001 21.553570 -3.059796
v -6.648125 21.553570 -4.442135
v -5.653766 21.553570 -5.653766
v -4.442135 21.553570 -6.648125
v -3.059796 21.553570 -7.387001
v -1.559870 21.553570 -7.841998
v -0.000000 5.915493 -3.312973
v 0.646328 5.915493 -3.249315
v 1.267822 5.915493 -3.060786
v 1.840590 5.915493 -2.754637
v 2.342625 5.915493 -2.342625
v 2.754636 5.915493 -1.840590
v 3.060788 5.915493 -1.267823
v 3.249314 5.915493 -0.646328
v 3.312973 5.915493 0.000000
v 3.249315 5.915493 0.646328
v 3.060786 5.915493 1.267823
v 2.754637 5.915493 1.840590
v 2.342625 5.915493 2.342625
v 1.840589 5.915493 2.754637
v 1.267823 5.915493 3.060788
v 0.646328 5.915493 3.249315
v -0.000000 5.915493 3.312973
v -0.646329 5.915493 3.249315
v -1.267823 5.915493 3.060786
v -1.840590 5.915493 2.754637
v -2.342626 5.915493 2.342625
v -2.754637 5.915493 1.840590
v -3.060788 5.915493 1.267823
v -3.249315 5.915493 0.646328
v -3.312974 5.915493 0.000000
v -3.249316 5.915493 -0.646328
v -3.060787 5.915493 -1.267823
v -2.754637 5.915493 -1.840590
v -2.342626 5.915493 -2.342625
v -1.840590 5.915493 -2.754637
v -1.267823 5.915493 -3.060788
v -0.646328 5.915493 -3.249315
v 3.691700 57.205845 -18.559427
v 0.000000 57.205845 -18.923029
v 7.241531 57.205845 -17.482599
v 10.513072 57.205845 -15.733923
v 13.380603 57.205845 -13.380603
v 15.733923 57.205845 -10.513072
v 17.482599 57.205845 -7.241531
v 18.559427 57.205845 -3.691700
v 18.923029 57.205845 0.000000
v 18.559427 57.205845 3.691700
v 17.482599 57.205845 7.241531
v 15.733923 57.205845 10.513072
v 13.380603 57.205845 13.380603
v 10.513072 57.205845 15.733923
v 7.241531 57.205845 17.482599
v 3.691700 57.205845 18.559427
v 0.000000 57.205845 18.923029
v -3.691700 57.205845 18.559427
v -7.241531 57.205845 17.482599
v -10.513072 57.205845 15.733923
v -13.380603 57.205845 13.380603
v -15.733923 57.205845 10.513072
v -17.482599 57.205845 7.241531
v -18.559427 57.205845 3.691700
v -18.923029 57.205845 0.000000
v -18.559427 57.205845 -3.691700
v -17.482599 57.205845 -7.241531
v -15.733923 57.205845 -10.513072
v -13.380603 57.205845 -13.380603
v -10.513072 57.205845 -15.733923
v -7.241531 57.205845 -17.482599
v -3.691700 57.205845 -18.559427
v 3.691708 205.161530 -18.559427
v 0.000008 205.161530 -18.923029
v 7.241539 205.161530 -17.482599
v 10.513081 205.161530 -15.733923
v 13.380611 205.161530 -13.380603
v 15.733932 205.161530 -10.513072
v 17.482607 205.161530 -7.241531
v 18.559435 205.161530 -3.691700
v 18.923037 205.161530 0.000000
v 18.559435 205.161530 3.691700
v 17.482607 205.161530 7.241531
v 15.733932 205.161530 10.513072
v 13.380611 205.161530 13.380603
v 10.513081 205.161530 15.733923
v 7.241539 205.161530 17.482599
v 3.691708 205.161530 18.559427
v 0.000008 205.161530 18.923029
v -3.691691 205.161530 18.559427
v -7.241523 205.161530 17.482599
v -10.513063 205.161530 15.733923
v -13.380594 205.161530 13.380603
v -15.733914 205.161530 10.513072
v -17.482592 205.161530 7.241531
v -18.559420 205.161530 3.691700
v -18.923021 205.161530 0.000000
v -18.559420 205.161530 -3.691700
v -17.482592 205.161530 -7.241531
v -15.733914 205.161530 -10.513072
v -13.380594 205.161530 -13.380603
v -10.513063 205.161530 -15.733923
v -7.241523 205.161530 -17.482599
v -3.691691 205.161530 -18.559427
vn -0.0000 -0.0000 -1.0000
vn 0.1951 -0.0000 -0.9808
vn 0.3827 -0.0000 -0.9239
vn 0.5556 -0.0000 -0.8315
vn 0.7071 -0.0000 -0.7071
vn 0.8315 -0.0000 -0.5556
vn 0.9239 -0.0000 -0.3827
vn 0.9808 -0.0000 -0.1951
vn 1.0000 -0.0000 -0.0000
vn 0.9808 -0.0000 0.1951
vn 0.9239 -0.0000 0.3827
vn 0.8315 -0.0000 0.5556
vn 0.7071 -0.0000 0.7071
vn 0.5556 -0.0000 0.8315
vn 0.3827 -0.0000 0.9239
vn 0.1951 -0.0000 0.9808
vn -0.0000 -0.0000 1.0000
vn -0.1951 -0.0000 0.9808
vn -0.3827 -0.0000 0.9239
vn -0.5556 -0.0000 0.8315
vn -0.7071 -0.0000 0.7071
vn -0.8315 -0.0000 0.5556
vn -0.9239 -0.0000 0.3827
vn -0.9808 -0.0000 0.1951
vn -1.0000 -0.0000 -0.0000
vn -0.9808 -0.0000 -0.1951
vn -0.9239 -0.0000 -0.3827
vn -0.8315 -0.0000 -0.5556
vn -0.7071 -0.0000 -0.7071
vn -0.5556 -0.0000 -0.8315
vn -0.3827 -0.0000 -0.9239
vn -0.1951 -0.0000 -0.9808
vn -0.0000 -1.0000 -0.0000
vn -0.0000 1.0000 -0.0000
vt 1.000000 1.000000
vt 0.968750 0.500000
vt 1.000000 0.500000
vt 0.968750 1.000000
vt 0.937500 0.500000
vt 0.937500 1.000000
vt 0.906250 0.500000
vt 0.906250 1.000000
vt 0.875000 0.500000
vt 0.875000 1.000000
vt 0.843750 0.500000
vt 0.843750 1.000000
vt 0.812500 0.500000
vt 0.812500 1.000000
vt 0.781250 0.500000
vt 0.781250 1.000000
vt 0.750000 0.500000
vt 0.750000 1.000000
vt 0.718750 0.500000
vt 0.718750 1.000000
vt 0.687500 0.500000
vt 0.687500 1.000000
vt 0.656250 0.500000
vt 0.656250 1.000000
vt 0.625000 0.500000
vt 0.625000 1.000000
vt 0.593750 0.500000
vt 0.593750 1.000000
vt 0.562500 0.500000
vt 0.562500 1.000000
vt 0.531250 0.500000
vt 0.531250 1.000000
vt 0.500000 0.500000
vt 0.500000 1.000000
vt 0.468750 0.500000
vt 0.468750 1.000000
vt 0.437500 0.500000
vt 0.437500 1.000000
vt 0.406250 0.500000
vt 0.406250 1.000000
vt 0.375000 0.500000
vt 0.375000 1.000000
vt 0.343750 0.500000
vt 0.343750 1.000000
vt 0.312500 0.500000
vt 0.312500 1.000000
vt 0.281250 0.500000
vt 0.281250 1.000000
vt 0.250000 0.500000
vt 0.250000 1.000000
vt 0.218750 0.500000
vt 0.218750 1.000000
vt 0.187500 0.500000
vt 0.187500 1.000000
vt 0.156250 0.500000
vt 0.156250 1.000000
vt 0.125000 0.500000
vt 0.125000 1.000000
vt 0.093750 0.500000
vt 0.093750 1.000000
vt 0.062500 0.500000
vt 0.062500 1.000000
vt 0.031250 0.500000
vt 0.031250 1.000000
vt 0.000000 0.500000
vt 0.727080 0.194665
vt 0.738315 0.191257
vt 0.750000 0.309894
vt 0.796822 0.485388
vt 0.761685 0.308743
vt 0.841844 0.471731
vt 0.772920 0.305335
vt 0.783275 0.299800
vt 0.883337 0.449553
vt 0.919706 0.419706
vt 0.792351 0.292351
vt 0.799800 0.283275
vt 0.949553 0.383337
vt 0.805334 0.272920
vt 0.971731 0.341844
vt 0.985388 0.296822
vt 0.808743 0.261685
vt 0.809894 0.250000
vt 0.990000 0.250000
vt 0.985388 0.203178
vt 0.808743 0.238315
vt 0.971731 0.158156
vt 0.805334 0.227080
vt 0.799800 0.216725
vt 0.949553 0.116663
vt 0.919706 0.080294
vt 0.792351 0.207649
vt 0.783275 0.200200
vt 0.883337 0.050447
vt 0.772920 0.194665
vt 0.841844 0.028269
vt 0.796822 0.014612
vt 0.761685 0.191257
vt 0.750000 0.190106
vt 0.750000 0.010000
vt 0.703178 0.014612
vt 0.658156 0.028269
vt 0.716725 0.200200
vt 0.616663 0.050447
vt 0.580294 0.080294
vt 0.707649 0.207649
vt 0.700200 0.216725
vt 0.550447 0.116663
vt 0.694666 0.227080
vt 0.528269 0.158156
vt 0.514612 0.203178
vt 0.691257 0.238315
vt 0.690106 0.250000
vt 0.510000 0.250000
vt 0.514612 0.296822
vt 0.691257 0.261685
vt 0.528269 0.341844
vt 0.694665 0.272920
vt 0.700200 0.283275
vt 0.550447 0.383337
vt 0.580294 0.419706
vt 0.707649 0.292351
vt 0.716725 0.299800
vt 0.616663 0.449553
vt 0.727080 0.305334
vt 0.658156 0.471731
vt 0.703178 0.485388
vt 0.738315 0.308743
vt 0.750000 0.490000
vt 0.000000 1.000000
s 1
f 2/1/1 66/2/2 65/3/1
f 4/4/2 67/5/3 66/2/2
f 6/6/3 68/7/4 67/5/3
f 8/8/4 69/9/5 68/7/4
f 10/10/5 70/11/6 69/9/5
f 12/12/6 71/13/7 70/11/6
f 14/14/7 72/15/8 71/13/7
f 16/16/8 73/17/9 72/15/8
f 18/18/9 74/19/10 73/17/9
f 20/20/10 75/21/11 74/19/10
f 22/22/11 76/23/12 75/21/11
f 24/24/12 77/25/13 76/23/12
f 26/26/13 78/27/14 77/25/13
f 28/28/14 79/29/15 78/27/14
f 30/30/15 80/31/16 79/29/15
f 32/32/16 81/33/17 80/31/16
f 34/34/17 82/35/18 81/33/17
f 36/36/18 83/37/19 82/35/18
f 38/38/19 84/39/20 83/37/19
f 40/40/20 85/41/21 84/39/20
f 42/42/21 86/43/22 85/41/21
f 44/44/22 87/45/23 86/43/22
f 46/46/23 88/47/24 87/45/23
f 48/48/24 89/49/25 88/47/24
f 50/50/25 90/51/26 89/49/25
f 52/52/26 91/53/27 90/51/26
f 54/54/27 92/55/28 91/53/27
f 56/56/28 93/57/29 92/55/28
f 58/58/29 94/59/30 93/57/29
f 60/60/30 95/61/31 94/59/30
f 62/62/31 96/63/32 95/61/31
f 64/64/32 65/65/1 96/63/32
f 37/66/19 114/67/18 35/67/18
f 34/34/33 144/32/33 145/34/33
f 1/68/33 66/69/33 3/70/33
f 3/70/33 67/71/33 5/72/33
f 7/73/33 67/71/33 68/74/33
f 7/73/33 69/75/33 9/76/33
f 11/77/33 69/75/33 70/78/33
f 13/79/33 70/78/33 71/80/33
f 13/79/33 72/81/33 15/82/33
f 17/83/33 72/81/33 73/84/33
f 17/83/33 74/85/33 19/86/33
f 19/86/33 75/87/33 21/88/33
f 23/89/33 75/87/33 76/90/33
f 23/89/33 77/91/33 25/92/33
f 27/93/33 77/91/33 78/94/33
f 29/95/33 78/94/33 79/96/33
f 29/95/33 80/97/33 31/98/33
f 33/99/33 80/97/33 81/100/33
f 33/99/33 82/101/33 35/67/33
f 35/67/33 83/102/33 37/66/33
f 39/103/33 83/102/33 84/104/33
f 39/103/33 85/105/33 41/106/33
f 43/107/33 85/105/33 86/108/33
f 45/109/33 86/108/33 87/110/33
f 45/109/33 88/111/33 47/112/33
f 49/113/33 88/111/33 89/114/33
f 49/113/33 90/115/33 51/116/33
f 51/116/33 91/117/33 53/118/33
f 55/119/33 91/117/33 92/120/33
f 55/119/33 93/121/33 57/122/33
f 59/123/33 93/121/33 94/124/33
f 61/125/33 94/124/33 95/126/33
f 61/125/33 96/127/33 63/128/33
f 1/68/33 96/127/33 65/129/33
f 112/98/33 120/112/33 128/128/33
f 11/77/6 101/76/5 9/76/5
f 1/68/1 128/128/32 63/128/32
f 39/103/20 115/66/19 37/66/19
f 13/79/7 102/77/6 11/77/6
f 41/106/21 116/103/20 39/103/20
f 15/82/8 103/79/7 13/79/7
f 43/107/22 117/106/21 41/106/21
f 17/83/9 104/82/8 15/82/8
f 45/109/23 118/107/22 43/107/22
f 19/86/10 105/83/9 17/83/9
f 47/112/24 119/109/23 45/109/23
f 21/88/11 106/86/10 19/86/10
f 49/113/25 120/112/24 47/112/24
f 23/89/12 107/88/11 21/88/11
f 51/116/26 121/113/25 49/113/25
f 25/92/13 108/89/12 23/89/12
f 53/118/27 122/116/26 51/116/26
f 27/93/14 109/92/13 25/92/13
f 55/119/28 123/118/27 53/118/27
f 29/95/15 110/93/14 27/93/14
f 3/70/2 97/68/1 1/68/1
f 57/122/29 124/119/28 55/119/28
f 31/98/16 111/95/15 29/95/15
f 5/72/3 98/70/2 3/70/2
f 59/123/30 125/122/29 57/122/29
f 33/99/17 112/98/16 31/98/16
f 7/73/4 99/72/3 5/72/3
f 61/125/31 126/123/30 59/123/30
f 35/67/18 113/99/17 33/99/17
f 9/76/5 100/73/4 7/73/4
f 63/128/32 127/125/31 61/125/31
f 153/50/25 186/52/26 154/52/26
f 50/50/33 154/52/33 52/52/33
f 6/6/33 132/8/33 8/8/33
f 26/26/33 140/24/33 141/26/33
f 42/42/33 150/44/33 44/44/33
f 60/60/33 159/62/33 62/62/33
f 18/18/33 136/16/33 137/18/33
f 34/34/33 146/36/33 36/36/33
f 54/54/33 154/52/33 155/54/33
f 10/10/33 132/8/33 133/10/33
f 26/26/33 142/28/33 28/28/33
f 44/44/33 151/46/33 46/46/33
f 62/62/33 160/64/33 64/64/33
f 18/18/33 138/20/33 20/20/33
f 38/38/33 146/36/33 147/38/33
f 54/54/33 156/56/33 56/56/33
f 10/10/33 134/12/33 12/12/33
f 28/28/33 143/30/33 30/30/33
f 46/46/33 152/48/33 48/48/33
f 2/1/33 129/4/33 4/4/33
f 2/130/33 160/64/33 130/130/33
f 22/22/33 138/20/33 139/22/33
f 38/38/33 148/40/33 40/40/33
f 58/58/33 156/56/33 157/58/33
f 12/12/33 135/14/33 14/14/33
f 30/30/33 144/32/33 32/32/33
f 50/50/33 152/48/33 153/50/33
f 6/6/33 129/4/33 131/6/33
f 22/22/33 140/24/33 24/24/33
f 42/42/33 148/40/33 149/42/33
f 58/58/33 158/60/33 60/60/33
f 14/14/33 136/16/33 16/16/33
f 179/38/34 171/22/34 163/6/34
f 140/24/12 173/26/13 141/26/13
f 155/54/27 186/52/26 187/54/27
f 141/26/13 174/28/14 142/28/14
f 155/54/27 188/56/28 156/56/28
f 142/28/14 175/30/15 143/30/15
f 130/1/1 161/4/2 129/4/2
f 156/56/28 189/58/29 157/58/29
f 143/30/15 176/32/16 144/32/16
f 131/6/3 161/4/2 163/6/3
f 157/58/29 190/60/30 158/60/30
f 144/32/16 177/34/17 145/34/17
f 131/6/3 164/8/4 132/8/4
f 158/60/30 191/62/31 159/62/31
f 145/34/17 178/36/18 146/36/18
f 132/8/4 165/10/5 133/10/5
f 159/62/31 192/64/32 160/64/32
f 147/38/19 178/36/18 179/38/19
f 133/10/5 166/12/6 134/12/6
f 160/64/32 162/130/1 130/130/1
f 147/38/19 180/40/20 148/40/20
f 134/12/6 167/14/7 135/14/7
f 148/40/20 181/42/21 149/42/21
f 136/16/8 167/14/7 168/16/8
f 149/42/21 182/44/22 150/44/22
f 136/16/8 169/18/9 137/18/9
f 150/44/22 183/46/23 151/46/23
f 137/18/9 170/20/10 138/20/10
f 151/46/23 184/48/24 152/48/24
f 138/20/10 171/22/11 139/22/11
f 152/48/24 185/50/25 153/50/25
f 139/22/11 172/24/12 140/24/12
f 2/1/1 4/4/2 66/2/2
f 4/4/2 6/6/3 67/5/3
f 6/6/3 8/8/4 68/7/4
f 8/8/4 10/10/5 69/9/5
f 10/10/5 12/12/6 70/11/6
f 12/12/6 14/14/7 71/13/7
f 14/14/7 16/16/8 72/15/8
f 16/16/8 18/18/9 73/17/9
f 18/18/9 20/20/10 74/19/10
f 20/20/10 22/22/11 75/21/11
f 22/22/11 24/24/12 76/23/12
f 24/24/12 26/26/13 77/25/13
f 26/26/13 28/28/14 78/27/14
f 28/28/14 30/30/15 79/29/15
f 30/30/15 32/32/16 80/31/16
f 32/32/16 34/34/17 81/33/17
f 34/34/17 36/36/18 82/35/18
f 36/36/18 38/38/19 83/37/19
f 38/38/19 40/40/20 84/39/20
f 40/40/20 42/42/21 85/41/21
f 42/42/21 44/44/22 86/43/22
f 44/44/22 46/46/23 87/45/23
f 46/46/23 48/48/24 88/47/24
f 48/48/24 50/50/25 89/49/25
f 50/50/25 52/52/26 90/51/26
f 52/52/26 54/54/27 91/53/27
f 54/54/27 56/56/28 92/55/28
f 56/56/28 58/58/29 93/57/29
f 58/58/29 60/60/30 94/59/30
f 60/60/30 62/62/31 95/61/31
f 62/62/31 64/64/32 96/63/32
f 64/64/32 2/130/1 65/65/1
f 37/66/19 115/66/19 114/67/18
f 34/34/33 32/32/33 144/32/33
f 1/68/33 65/129/33 66/69/33
f 3/70/33 66/69/33 67/71/33
f 7/73/33 5/72/33 67/71/33
f 7/73/33 68/74/33 69/75/33
f 11/77/33 9/76/33 69/75/33
f 13/79/33 11/77/33 70/78/33
f 13/79/33 71/80/33 72/81/33
f 17/83/33 15/82/33 72/81/33
f 17/83/33 73/84/33 74/85/33
f 19/86/33 74/85/33 75/87/33
f 23/89/33 21/88/33 75/87/33
f 23/89/33 76/90/33 77/91/33
f 27/93/33 25/92/33 77/91/33
f 29/95/33 27/93/33 78/94/33
f 29/95/33 79/96/33 80/97/33
f 33/99/33 31/98/33 80/97/33
f 33/99/33 81/100/33 82/101/33
f 35/67/33 82/101/33 83/102/33
f 39/103/33 37/66/33 83/102/33
f 39/103/33 84/104/33 85/105/33
f 43/107/33 41/106/33 85/105/33
f 45/109/33 43/107/33 86/108/33
f 45/109/33 87/110/33 88/111/33
f 49/113/33 47/112/33 88/111/33
f 49/113/33 89/114/33 90/115/33
f 51/116/33 90/115/33 91/117/33
f 55/119/33 53/118/33 91/117/33
f 55/119/33 92/120/33 93/121/33
f 59/123/33 57/122/33 93/121/33
f 61/125/33 59/123/33 94/124/33
f 61/125/33 95/126/33 96/127/33
f 1/68/33 63/128/33 96/127/33
f 128/128/33 97/68/33 98/70/33
f 98/70/33 99/72/33 100/73/33
f 100/73/33 101/76/33 102/77/33
f 102/77/33 103/79/33 104/82/33
f 104/82/33 105/83/33 106/86/33
f 106/86/33 107/88/33 108/89/33
f 108/89/33 109/92/33 110/93/33
f 110/93/33 111/95/33 112/98/33
f 112/98/33 113/99/33 114/67/33
f 114/67/33 115/66/33 116/103/33
f 116/103/33 117/106/33 118/107/33
f 118/107/33 119/109/33 120/112/33
f 120/112/33 121/113/33 122/116/33
f 122/116/33 123/118/33 124/119/33
f 124/119/33 125/122/33 126/123/33
f 126/123/33 127/125/33 128/128/33
f 128/128/33 98/70/33 100/73/33
f 100/73/33 102/77/33 104/82/33
f 104/82/33 106/86/33 108/89/33
f 108/89/33 110/93/33 112/98/33
f 112/98/33 114/67/33 116/103/33
f 116/103/33 118/107/33 120/112/33
f 120/112/33 122/116/33 124/119/33
f 124/119/33 126/123/33 128/128/33
f 128/128/33 100/73/33 104/82/33
f 104/82/33 108/89/33 112/98/33
f 112/98/33 116/103/33 120/112/33
f 120/112/33 124/119/33 128/128/33
f 128/128/33 104/82/33 112/98/33
f 11/77/6 102/77/6 101/76/5
f 1/68/1 97/68/1 128/128/32
f 39/103/20 116/103/20 115/66/19
f 13/79/7 103/79/7 102/77/6
f 41/106/21 117/106/21 116/103/20
f 15/82/8 104/82/8 103/79/7
f 43/107/22 118/107/22 117/106/21
f 17/83/9 105/83/9 104/82/8
f 45/109/23 119/109/23 118/107/22
f 19/86/10 106/86/10 105/83/9
f 47/112/24 120/112/24 119/109/23
f 21/88/11 107/88/11 106/86/10
f 49/113/25 121/113/25 120/112/24
f 23/89/12 108/89/12 107/88/11
f 51/116/26 122/116/26 121/113/25
f 25/92/13 109/92/13 108/89/12
f 53/118/27 123/118/27 122/116/26
f 27/93/14 110/93/14 109/92/13
f 55/119/28 124/119/28 123/118/27
f 29/95/15 111/95/15 110/93/14
f 3/70/2 98/70/2 97/68/1
f 57/122/29 125/122/29 124/119/28
f 31/98/16 112/98/16 111/95/15
f 5/72/3 99/72/3 98/70/2
f 59/123/30 126/123/30 125/122/29
f 33/99/17 113/99/17 112/98/16
f 7/73/4 100/73/4 99/72/3
f 61/125/31 127/125/31 126/123/30
f 35/67/18 114/67/18 113/99/17
f 9/76/5 101/76/5 100/73/4
f 63/128/32 128/128/32 127/125/31
f 153/50/25 185/50/25 186/52/26
f 50/50/33 153/50/33 154/52/33
f 6/6/33 131/6/33 132/8/33
f 26/26/33 24/24/33 140/24/33
f 42/42/33 149/42/33 150/44/33
f 60/60/33 158/60/33 159/62/33
f 18/18/33 16/16/33 136/16/33
f 34/34/33 145/34/33 146/36/33
f 54/54/33 52/52/33 154/52/33
f 10/10/33 8/8/33 132/8/33
f 26/26/33 141/26/33 142/28/33
f 44/44/33 150/44/33 151/46/33
f 62/62/33 159/62/33 160/64/33
f 18/18/33 137/18/33 138/20/33
f 38/38/33 36/36/33 146/36/33
f 54/54/33 155/54/33 156/56/33
f 10/10/33 133/10/33 134/12/33
f 28/28/33 142/28/33 143/30/33
f 46/46/33 151/46/33 152/48/33
f 2/1/33 130/1/33 129/4/33
f 2/130/33 64/64/33 160/64/33
f 22/22/33 20/20/33 138/20/33
f 38/38/33 147/38/33 148/40/33
f 58/58/33 56/56/33 156/56/33
f 12/12/33 134/12/33 135/14/33
f 30/30/33 143/30/33 144/32/33
f 50/50/33 48/48/33 152/48/33
f 6/6/33 4/4/33 129/4/33
f 22/22/33 139/22/33 140/24/33
f 42/42/33 40/40/33 148/40/33
f 58/58/33 157/58/33 158/60/33
f 14/14/33 135/14/33 136/16/33
f 163/6/34 161/4/34 162/130/34
f 162/130/34 192/64/34 191/62/34
f 191/62/34 190/60/34 189/58/34
f 189/58/34 188/56/34 187/54/34
f 187/54/34 186/52/34 185/50/34
f 185/50/34 184/48/34 183/46/34
f 183/46/34 182/44/34 181/42/34
f 181/42/34 180/40/34 179/38/34
f 179/38/34 178/36/34 177/34/34
f 177/34/34 176/32/34 175/30/34
f 175/30/34 174/28/34 173/26/34
f 173/26/34 172/24/34 171/22/34
f 171/22/34 170/20/34 169/18/34
f 169/18/34 168/16/34 167/14/34
f 167/14/34 166/12/34 165/10/34
f 165/10/34 164/8/34 163/6/34
f 163/6/34 162/130/34 191/62/34
f 191/62/34 189/58/34 187/54/34
f 187/54/34 185/50/34 183/46/34
f 183/46/34 181/42/34 179/38/34
f 179/38/34 177/34/34 175/30/34
f 175/30/34 173/26/34 171/22/34
f 171/22/34 169/18/34 167/14/34
f 167/14/34 165/10/34 163/6/34
f 163/6/34 191/62/34 187/54/34
f 187/54/34 183/46/34 179/38/34
f 179/38/34 175/30/34 171/22/34
f 171/22/34 167/14/34 163/6/34
f 163/6/34 187/54/34 179/38/34
f 140/24/12 172/24/12 173/26/13
f 155/54/27 154/52/26 186/52/26
f 141/26/13 173/26/13 174/28/14
f 155/54/27 187/54/27 188/56/28
f 142/28/14 174/28/14 175/30/15
f 130/1/1 162/1/1 161/4/2
f 156/56/28 188/56/28 189/58/29
f 143/30/15 175/30/15 176/32/16
f 131/6/3 129/4/2 161/4/2
f 157/58/29 189/58/29 190/60/30
f 144/32/16 176/32/16 177/34/17
f 131/6/3 163/6/3 164/8/4
f 158/60/30 190/60/30 191/62/31
f 145/34/17 177/34/17 178/36/18
f 132/8/4 164/8/4 165/10/5
f 159/62/31 191/62/31 192/64/32
f 147/38/19 146/36/18 178/36/18
f 133/10/5 165/10/5 166/12/6
f 160/64/32 192/64/32 162/130/1
f 147/38/19 179/38/19 180/40/20
f 134/12/6 166/12/6 167/14/7
f 148/40/20 180/40/20 181/42/21
f 136/16/8 135/14/7 167/14/7
f 149/42/21 181/42/21 182/44/22
f 136/16/8 168/16/8 169/18/9
f 150/44/22 182/44/22 183/46/23
f 137/18/9 169/18/9 170/20/10
f 151/46/23 183/46/23 184/48/24
f 138/20/10 170/20/10 171/22/11
f 152/48/24 184/48/24 185/50/25
f 139/22/11 171/22/11 172/24/12
